<svg xmlns="http://www.w3.org/2000/svg" width="302" height="128">
    <path fill="#4B4C4C" stroke="#4B4C4C" d="M32.697 120.217c-5.375 0-13.516-2.432-19.506-6.912l7.065-8.191c4.454 3.072 9.523 4.607 12.441 4.607 6.758 0 12.288-4.352 12.288-9.729v-10.881c-2.15 4.992-8.294 6.271-11.98 6.271-12.902 0-24.729-7.04-24.729-19.072v-24.576c0-10.24 11.98-19.969 24.729-19.073 4.915.384 11.059 1.92 13.055 7.808l1.229-7.168h10.137v66.691c0 11.649-11.519 20.225-24.729 20.225zm-11.98-43.906c-.461 6.019 6.144 8.705 12.595 8.705 5.836 0 11.673-3.328 11.673-8.576v-25.09c0-4.607-6.451-8.191-11.98-8.32-6.297 0-12.288 3.584-12.288 8.705v24.576z"/>
    <path fill="#4B4C4C" stroke="#4B4C4C" d="M61.576 75.287v-3.584c0-10.753 9.83-19.969 23.961-19.969 4.915 0 10.905 2.688 12.595 6.783l-.307-5.375c0-5.377-5.376-9.857-11.98-9.857-3.072 0-7.526 1.537-11.673 4.865l-6.758-8.577c5.222-3.968 12.441-6.784 18.432-6.784 13.056 0 24.421 9.088 24.421 20.354v41.857h-9.983l-1.229-6.527c-1.536 5.375-9.369 7.295-13.209 7.295-13.212 0-24.27-9.473-24.27-20.481zm24.268 10.111c5.836 0 11.98-3.967 11.98-8.575v-6.272c0-5.119-5.376-8.704-11.98-8.704-6.451 0-11.827 4.353-11.827 9.856v3.584c0 5.504 5.376 10.111 11.827 10.111z"/>
    <path fill="#4B4C4C" stroke="#4B4C4C" d="M141.753 71.191h-11.98v4.096c0 5.376 5.375 9.855 11.98 9.855 3.687 0 8.909-1.791 12.749-6.271l10.137 6.145c-6.604 8.064-15.82 10.496-22.886 10.496-13.055 0-24.421-8.576-24.421-20.225v-22.144c0-10.753 10.598-20.481 24.421-20.481 13.209 0 24.269 9.089 24.269 20.353-.001 11.647-11.213 18.176-24.269 18.176zm0-8.064c6.451 0 11.827-4.609 11.827-10.113 0-5.376-5.376-9.855-11.827-9.855-6.604 0-11.98 4.607-11.98 10.111v9.857h11.98z"/>
    <path fill="#1E7CC1" stroke="#1E7CC1" d="M187.832 19.988c0 3.713-3.84 6.4-7.986 6.4-3.994 0-7.527-2.688-7.527-6.4 0-3.968 3.533-6.528 7.527-6.528 4.146 0 7.986 2.561 7.986 6.528zm-1.689 75.012h-12.289v-61.57h12.289v61.57z"/>
    <path fill="#1E7CC1" stroke="#1E7CC1" d="M204.879 53.014v41.986h-12.441v-61.699h9.83l1.689 6.272c2.766-5.376 8.755-6.656 12.902-6.912 13.363-.64 24.422 9.729 24.422 20.353v41.986h-12.441v-41.986c0-5.376-5.529-9.984-12.134-9.984-6.451-.001-11.827 4.608-11.827 9.984z"/>
    <path fill="#1E7CC1" stroke="#1E7CC1" d="M263.092 19.988c0 3.713-3.84 6.4-7.986 6.4-3.994 0-7.525-2.688-7.525-6.4 0-3.968 3.531-6.528 7.525-6.528 4.146 0 7.986 2.561 7.986 6.528zm-1.69 75.012h-12.286v-61.57h12.286v61.57z"/>
    <path fill="#1E7CC1" stroke="#1E7CC1" d="M295.346 33.174v10.367h-15.359v30.723c0 5.889 7.681 10.496 16.742 10.496v10.24c-15.514 0-29.029-8.576-29.029-20.736v-66.052h12.287v24.962h15.359z"/>
</svg>
