<?xml version="1.0" encoding="utf-8"?>
<!-- Generator: Adobe Illustrator 16.2.0, SVG Export Plug-In . SVG Version: 6.00 Build 0)  -->
<!DOCTYPE svg PUBLIC "-//W3C//DTD SVG 1.1//EN" "http://www.w3.org/Graphics/SVG/1.1/DTD/svg11.dtd">
<svg version="1.1" xmlns="http://www.w3.org/2000/svg" xmlns:xlink="http://www.w3.org/1999/xlink" x="0px" y="0px" width="524px"
	 height="128px" viewBox="0 0 524 128" enable-background="new 0 0 524 128" xml:space="preserve">
<g id="gae-init">
	<g>
		<path fill="#4B4C4C" stroke="#4B4C4C" stroke-width="3" stroke-linecap="round" stroke-linejoin="round" d="M32.697,120.217
			c-5.375,0-13.516-2.432-19.506-6.912l7.065-8.192c4.454,3.072,9.523,4.608,12.441,4.608c6.758,0,12.288-4.352,12.288-9.729V89.111
			c-2.15,4.992-8.294,6.272-11.98,6.272c-12.902,0-24.729-7.04-24.729-19.073V51.734c0-10.24,11.98-19.969,24.729-19.073
			c4.915,0.384,11.059,1.92,13.055,7.808l1.229-7.168h10.137v66.691C57.426,111.641,45.907,120.217,32.697,120.217z M20.717,76.311
			c-0.461,6.018,6.144,8.705,12.595,8.705c5.836,0,11.673-3.328,11.673-8.576V51.35c0-4.607-6.451-8.191-11.98-8.32
			c-6.297,0-12.288,3.584-12.288,8.705V76.311z"/>
		<path fill="#4B4C4C" stroke="#4B4C4C" stroke-width="3" stroke-linecap="round" stroke-linejoin="round" d="M61.576,75.287v-3.584
			c0-10.753,9.83-19.969,23.961-19.969c4.915,0,10.905,2.688,12.595,6.783l-0.307-5.375c0-5.377-5.376-9.857-11.98-9.857
			c-3.072,0-7.526,1.537-11.673,4.865l-6.758-8.577c5.222-3.968,12.441-6.784,18.432-6.784c13.056,0,24.421,9.088,24.421,20.354V95
			h-9.983l-1.229-6.528c-1.536,5.376-9.369,7.296-13.209,7.296C72.634,95.768,61.576,86.295,61.576,75.287z M85.844,85.399
			c5.836,0,11.98-3.968,11.98-8.576v-6.272c0-5.12-5.376-8.704-11.98-8.704c-6.451,0-11.827,4.353-11.827,9.856v3.584
			C74.017,80.791,79.393,85.399,85.844,85.399z"/>
		<path fill="#4B4C4C" stroke="#4B4C4C" stroke-width="3" stroke-linecap="round" stroke-linejoin="round" d="M141.753,71.191
			h-11.98v4.096c0,5.376,5.375,9.856,11.98,9.856c3.687,0,8.909-1.792,12.749-6.272l10.137,6.145
			c-6.604,8.064-15.82,10.496-22.886,10.496c-13.055,0-24.421-8.576-24.421-20.225V53.143c0-10.753,10.598-20.481,24.421-20.481
			c13.209,0,24.268,9.089,24.268,20.353C166.021,64.662,154.809,71.191,141.753,71.191z M141.753,63.127
			c6.451,0,11.827-4.609,11.827-10.113c0-5.376-5.376-9.855-11.827-9.855c-6.604,0-11.98,4.607-11.98,10.111v9.857H141.753z"/>
		<path fill="#1E7CC1" stroke="#1E7CC1" stroke-width="3" stroke-linecap="round" stroke-linejoin="round" d="M187.832,19.988
			c0,3.713-3.84,6.4-7.987,6.4c-3.993,0-7.526-2.688-7.526-6.4c0-3.968,3.533-6.528,7.526-6.528
			C183.992,13.46,187.832,16.021,187.832,19.988z M186.142,95h-12.288V33.43h12.288V95z"/>
		<path fill="#1E7CC1" stroke="#1E7CC1" stroke-width="3" stroke-linecap="round" stroke-linejoin="round" d="M204.879,53.014V95
			h-12.441V33.301h9.83l1.689,6.272c2.765-5.376,8.755-6.656,12.902-6.912c13.363-0.64,24.422,9.729,24.422,20.353V95H228.84V53.014
			c0-5.376-5.529-9.984-12.134-9.984C210.255,43.029,204.879,47.638,204.879,53.014z"/>
		<path fill="#1E7CC1" stroke="#1E7CC1" stroke-width="3" stroke-linecap="round" stroke-linejoin="round" d="M263.092,19.988
			c0,3.713-3.84,6.4-7.986,6.4c-3.994,0-7.526-2.688-7.526-6.4c0-3.968,3.532-6.528,7.526-6.528
			C259.252,13.46,263.092,16.021,263.092,19.988z M261.403,95h-12.287V33.43h12.287V95z"/>
		<path fill="#1E7CC1" stroke="#1E7CC1" stroke-width="3" stroke-linecap="round" stroke-linejoin="round" d="M295.346,33.174
			v10.367h-15.36v30.723c0,5.888,7.681,10.496,16.742,10.496V95c-15.513,0-29.029-8.576-29.029-20.736V8.212h12.287v24.962H295.346z
			"/>
		<path fill="#B2B1B2" stroke="#B2B1B2" stroke-width="3" stroke-linecap="round" stroke-linejoin="round" d="M302.412,77.079V52.63
			c0-10.368,11.059-20.608,24.729-19.713c4.147,0.257,9.062,1.792,11.827,6.017V7.699h12.441V95h-9.369l-2.458-6.4
			c-2.765,5.248-8.141,7.168-12.748,7.168C310.091,95.768,302.412,87.703,302.412,77.079z M314.853,77.079
			c0,5.12,5.529,8.448,12.287,8.448c6.604,0,11.827-4.607,11.827-9.088V52.118c-0.153-5.12-4.147-8.833-11.827-8.833
			c-6.604,0-12.287,4.097-12.287,9.345V77.079z"/>
		<path fill="#B2B1B2" stroke="#B2B1B2" stroke-width="3" stroke-linecap="round" stroke-linejoin="round" d="M408.392,75.287
			c0,13.697-12.595,20.354-25.036,20.354c-12.595,0-24.883-6.656-24.883-20.354v-22.4c0-13.825,12.441-20.226,24.883-20.226
			c12.595,0,25.036,6.4,25.036,20.226V75.287z M395.951,52.887c0-6.529-6.298-9.985-12.595-9.985
			c-6.144,0-12.595,3.456-12.595,9.985v22.4c0,6.528,6.451,9.856,12.595,9.856c6.297,0,12.595-3.328,12.595-9.856V52.887z"/>
		<path fill="#B2B1B2" stroke="#B2B1B2" stroke-width="3" stroke-linecap="round" stroke-linejoin="round" d="M462.918,71.703
			c-0.152,13.057-10.598,23.938-24.268,23.938c-13.361,0-24.575-9.346-24.575-20.354V53.014c0-11.52,11.366-20.353,24.575-20.353
			c12.902,0,24.115,10.497,24.268,23.937h-12.439c0-7.68-5.377-13.439-11.828-13.439c-6.604,0-12.133,4.479-12.133,9.855v22.273
			c0,5.504,5.529,9.984,12.133,9.984c6.451,0,11.828-6.145,11.828-13.568H462.918z"/>
		<path fill="#B2B1B2" stroke="#B2B1B2" stroke-width="3" stroke-linecap="round" stroke-linejoin="round" d="M506.389,49.941
			c-3.992-4.607-8.447-7.168-11.826-7.168c-3.533,0-6.912,1.28-9.217,3.328c-1.535,1.408-2.764,3.457-2.764,6.145
			c-0.154,4.607,4.762,6.016,10.752,6.145c12.133,0.256,23.807,6.271,23.807,18.561c0.154,12.929-12.287,18.945-24.574,18.945
			c-8.295,0-18.432-4.48-24.115-12.801l10.598-4.736c3.533,4.864,8.908,7.168,13.67,7.168c6.145,0,11.98-2.943,11.98-8.576
			c0-5.377-5.529-7.937-11.52-8.064c-12.748-0.256-23.039-4.736-23.039-16.641c-0.154-12.545,11.98-19.585,24.268-19.585
			c7.834,0,16.127,3.584,22.426,11.521L506.389,49.941z"/>
	</g>
</g>
</svg>
